<?xml version="1.0" encoding="UTF-8" standalone="no"?>
<svg xmlns="http://www.w3.org/2000/svg" xmlns:xlink="http://www.w3.org/1999/xlink" width="800" height="450" viewBox="0 0 800 450">
  <rect width="800" height="450" fill="#212529" />
  <rect x="50" y="60" width="700" height="60" rx="5" fill="#343a40" />
  <text x="400" y="95" font-family="Arial" font-size="24" fill="#f8f9fa" text-anchor="middle">Yahoo Finance Scraper</text>

  <!-- Input Form Area -->
  <rect x="50" y="140" width="700" height="120" rx="5" fill="#343a40" />
  <rect x="70" y="160" width="200" height="30" rx="3" fill="#495057" />
  <text x="180" y="180" font-family="Arial" font-size="14" fill="#adb5bd" text-anchor="middle">Stock Ticker</text>
  
  <rect x="290" y="160" width="200" height="30" rx="3" fill="#495057" />
  <text x="390" y="180" font-family="Arial" font-size="14" fill="#adb5bd" text-anchor="middle">Start Date</text>
  
  <rect x="510" y="160" width="200" height="30" rx="3" fill="#495057" />
  <text x="610" y="180" font-family="Arial" font-size="14" fill="#adb5bd" text-anchor="middle">End Date</text>
  
  <rect x="290" y="210" width="200" height="35" rx="5" fill="#0d6efd" />
  <text x="390" y="232" font-family="Arial" font-size="16" fill="#ffffff" text-anchor="middle">Get Stock Data</text>
  
  <!-- Chart/Graph Area -->
  <rect x="50" y="280" width="700" height="150" rx="5" fill="#343a40" />
  
  <!-- Chart Line -->
  <polyline points="70,380 150,350 230,360 310,330 390,340 470,310 550,280 630,320 710,340" 
            fill="none" stroke="#34c38f" stroke-width="3" />
            
  <!-- Data points -->
  <circle cx="70" cy="380" r="4" fill="#34c38f" />
  <circle cx="150" cy="350" r="4" fill="#34c38f" />
  <circle cx="230" cy="360" r="4" fill="#34c38f" />
  <circle cx="310" cy="330" r="4" fill="#34c38f" />
  <circle cx="390" cy="340" r="4" fill="#34c38f" />
  <circle cx="470" cy="310" r="4" fill="#34c38f" />
  <circle cx="550" cy="280" r="4" fill="#34c38f" />
  <circle cx="630" cy="320" r="4" fill="#34c38f" />
  <circle cx="710" cy="340" r="4" fill="#34c38f" />
  
  <!-- X and Y Axis -->
  <line x1="70" y1="380" x2="710" y2="380" stroke="#6c757d" stroke-width="1" />
  <line x1="70" y1="380" x2="70" y2="290" stroke="#6c757d" stroke-width="1" />
</svg>